<mxfile host="app.diagrams.net" modified="2023-03-20T07:54:17.365Z" agent="5.0 (Windows NT 10.0; WOW64) AppleWebKit/537.36 (KHTML, like Gecko) Chrome/86.0.4240.198 Safari/537.36" etag="XzLLdPaKYXujlbpUrWWM" version="21.0.8" type="github">
  <diagram name="第 1 页" id="Il5CFsoHIEtn_3Yq0YUe">
    <mxGraphModel dx="503" dy="278" grid="1" gridSize="10" guides="1" tooltips="1" connect="1" arrows="1" fold="1" page="1" pageScale="1" pageWidth="827" pageHeight="1169" math="0" shadow="0">
      <root>
        <mxCell id="0" />
        <mxCell id="1" parent="0" />
        <mxCell id="L3UIN-aM1Lwhf94JsEvo-1" value="Arena&lt;br&gt;&lt;br&gt;&lt;br&gt;&lt;br&gt;&lt;br&gt;&lt;br&gt;&lt;br&gt;&lt;br&gt;&lt;br&gt;&lt;br&gt;&lt;br&gt;" style="rounded=0;whiteSpace=wrap;html=1;movable=1;resizable=1;rotatable=1;deletable=1;editable=1;locked=0;connectable=1;" vertex="1" parent="1">
          <mxGeometry x="130" y="60" width="370" height="170" as="geometry" />
        </mxCell>
        <mxCell id="L3UIN-aM1Lwhf94JsEvo-2" value="Chunk（16M）&lt;br&gt;&lt;br&gt;&lt;br&gt;&lt;br&gt;&lt;br&gt;&lt;br&gt;&lt;br&gt;&lt;br&gt;" style="rounded=0;whiteSpace=wrap;html=1;movable=1;resizable=1;rotatable=1;deletable=1;editable=1;locked=0;connectable=1;" vertex="1" parent="1">
          <mxGeometry x="140" y="90" width="110" height="130" as="geometry" />
        </mxCell>
        <mxCell id="L3UIN-aM1Lwhf94JsEvo-5" value="page&lt;br&gt;" style="rounded=0;whiteSpace=wrap;html=1;movable=1;resizable=1;rotatable=1;deletable=1;editable=1;locked=0;connectable=1;" vertex="1" parent="1">
          <mxGeometry x="150" y="160" width="90" height="20" as="geometry" />
        </mxCell>
        <mxCell id="L3UIN-aM1Lwhf94JsEvo-6" value="page（8K）" style="rounded=0;whiteSpace=wrap;html=1;movable=1;resizable=1;rotatable=1;deletable=1;editable=1;locked=0;connectable=1;" vertex="1" parent="1">
          <mxGeometry x="150" y="130" width="90" height="20" as="geometry" />
        </mxCell>
        <mxCell id="L3UIN-aM1Lwhf94JsEvo-7" value="..." style="rounded=0;whiteSpace=wrap;html=1;movable=1;resizable=1;rotatable=1;deletable=1;editable=1;locked=0;connectable=1;" vertex="1" parent="1">
          <mxGeometry x="150" y="189" width="90" height="20" as="geometry" />
        </mxCell>
        <mxCell id="L3UIN-aM1Lwhf94JsEvo-8" value="Chunk（16M）&lt;br&gt;&lt;br&gt;&lt;br&gt;&lt;br&gt;&lt;br&gt;&lt;br&gt;&lt;br&gt;&lt;br&gt;" style="rounded=0;whiteSpace=wrap;html=1;movable=1;resizable=1;rotatable=1;deletable=1;editable=1;locked=0;connectable=1;" vertex="1" parent="1">
          <mxGeometry x="260" y="90" width="110" height="130" as="geometry" />
        </mxCell>
        <mxCell id="L3UIN-aM1Lwhf94JsEvo-9" value="page&lt;br&gt;" style="rounded=0;whiteSpace=wrap;html=1;movable=1;resizable=1;rotatable=1;deletable=1;editable=1;locked=0;connectable=1;" vertex="1" parent="1">
          <mxGeometry x="270" y="160" width="90" height="20" as="geometry" />
        </mxCell>
        <mxCell id="L3UIN-aM1Lwhf94JsEvo-10" value="page&lt;br&gt;" style="rounded=0;whiteSpace=wrap;html=1;movable=1;resizable=1;rotatable=1;deletable=1;editable=1;locked=0;connectable=1;" vertex="1" parent="1">
          <mxGeometry x="270" y="130" width="90" height="20" as="geometry" />
        </mxCell>
        <mxCell id="L3UIN-aM1Lwhf94JsEvo-12" value="..." style="rounded=0;whiteSpace=wrap;html=1;movable=1;resizable=1;rotatable=1;deletable=1;editable=1;locked=0;connectable=1;" vertex="1" parent="1">
          <mxGeometry x="380" y="90" width="110" height="130" as="geometry" />
        </mxCell>
        <mxCell id="L3UIN-aM1Lwhf94JsEvo-16" value="..." style="rounded=0;whiteSpace=wrap;html=1;movable=1;resizable=1;rotatable=1;deletable=1;editable=1;locked=0;connectable=1;" vertex="1" parent="1">
          <mxGeometry x="270" y="189" width="90" height="20" as="geometry" />
        </mxCell>
      </root>
    </mxGraphModel>
  </diagram>
</mxfile>
